<svg xmlns="http://www.w3.org/2000/svg" width="72" height="72" viewBox="0 0 72 72" fill="none">
  <path d="M36 62C50.3594 62 62 50.3594 62 36C62 21.6406 50.3594 10 36 10C21.6406 10 10 21.6406 10 36C10 50.3594 21.6406 62 36 62Z" fill="url(#paint0_radial_2569_14061)"/>
  <path d="M36 62C50.3594 62 62 50.3594 62 36C62 21.6406 50.3594 10 36 10C21.6406 10 10 21.6406 10 36C10 50.3594 21.6406 62 36 62Z" fill="url(#paint1_radial_2569_14061)"/>
  <path d="M59.9989 16.3573C61.1045 16.3573 62.0007 15.4684 62.0007 14.3718C62.0007 13.2752 61.1045 12.3862 59.9989 12.3862C58.8933 12.3862 57.9971 13.2752 57.9971 14.3718C57.9971 15.4684 58.8933 16.3573 59.9989 16.3573Z" fill="#2CD6FB"/>
  <path d="M56.8499 6.80322C58.6261 6.80322 60.0659 5.37503 60.0659 3.61328C60.0659 1.85152 58.6261 0.42334 56.8499 0.42334C55.0737 0.42334 53.6338 1.85152 53.6338 3.61328C53.6338 5.37503 55.0737 6.80322 56.8499 6.80322Z" fill="#2CD6FB"/>
  <path opacity="0.4" d="M56.244 52.203C51.4749 58.0768 44.1705 61.8342 35.9828 61.8342C22.2764 61.8342 16.5501 49.5837 15.5439 36.2227C16.3259 25.8609 17.7656 18.9143 27.2397 15.5556C27.2397 15.5556 29.48 14.7294 32.1497 14.333C32.1746 14.3302 32.2273 14.3219 32.2273 14.3219C32.6744 14.2609 36.3759 13.737 40.3854 12.7196C41.3334 12.4795 42.2195 12.1302 43.0911 11.7868C43.4154 11.6589 43.7377 11.5319 44.0604 11.4116C47.7335 12.6023 51.0471 14.583 53.798 17.1517C53.7361 18.0298 53.4825 18.9647 52.6516 20.0662C52.3934 20.4238 52.0695 20.798 51.674 21.1917C51.674 21.1917 50.8407 21.8072 50.8134 22.8939C50.8134 22.8939 50.7833 23.709 51.4081 24.33C51.4145 24.3364 51.4228 24.3444 51.4328 24.3541C51.6536 24.5667 52.699 25.5732 52.699 28.6021C52.699 31.5324 50.4905 34.6624 47.3039 34.6624C47.3039 34.6624 46.6174 34.6596 45.9128 34.5182L45.2269 34.3269C46.0311 34.7649 47.118 35.7103 47.118 38.2331C47.118 41.4545 44.268 43.007 42.3207 43.007C40.3731 43.007 37.4369 45.1168 37.4369 49.3113V49.3251C37.4399 49.6189 37.5672 54.3319 42.3902 55.402C45.5921 56.111 51.5931 56.0704 56.244 52.203Z" fill="black"/>
  <path d="M32.2271 10.2469C32.2271 10.2469 32.1743 10.2553 32.1495 10.258C29.4797 10.657 27.2394 11.4885 27.2394 11.4885C17.175 15.0794 9.98242 24.6015 9.98242 35.8902C9.98242 50.3644 21.6316 62.0002 35.991 62.0002C49.5001 62.0002 60.6096 51.6852 61.8757 38.5076C58.7223 52.0088 47.2849 52.6813 42.3899 51.5904C37.5669 50.5134 37.4397 45.7702 37.4366 45.4745V45.4606C37.4366 41.2392 40.3729 39.1159 42.3204 39.1159C44.2677 39.1159 47.1178 37.5534 47.1178 34.3113C47.1178 31.7724 46.0308 30.821 45.2266 30.3802L45.9125 30.5727C46.6171 30.7149 47.3036 30.7177 47.3036 30.7177C50.4902 30.7177 52.6987 27.5677 52.6987 24.6186C52.6987 21.4323 51.5565 20.4698 51.4078 20.3191C50.783 19.6941 50.8131 18.8739 50.8131 18.8739C50.8405 17.7801 51.6737 17.1607 51.6737 17.1607C52.0692 16.7645 52.3932 16.3879 52.6513 16.028C53.6509 14.6943 53.815 13.6034 53.815 12.5627C53.815 10.3808 52.375 7.25036 48.7668 6.6477L48.0161 6.56398C45.2536 6.38821 43.0669 7.9507 40.3851 8.6343C36.3756 9.6582 32.6741 10.1855 32.2271 10.2469Z" fill="url(#paint2_radial_2569_14061)"/>
  <path d="M39.6007 19.5868C39.6007 14.9648 33.6924 12.5098 29.1919 12.5098C24.6913 12.5098 21.9959 14.09 21.9959 14.09C14.7816 18.7107 10 26.797 10 36.0001C10 50.3595 21.6406 62.0001 36 62.0001C43.0665 62.0001 49.4746 59.181 54.1609 54.6061C49.1373 59.0208 43.9181 58.706 43.9181 58.706C28.8256 58.706 28.0526 45.8923 28.0526 45.3703C28.0526 40.6115 31.902 36.7318 35.0917 36.8658C36.6852 36.9362 39.2647 35.5647 39.2647 33.0317C39.2647 30.4987 37.7448 29.3005 36.2743 28.9656C35.3961 28.7639 34.8883 27.4069 34.8883 26.9014C34.8883 25.4125 36.4914 24.7372 36.4914 24.7372C39.7773 22.8878 39.6007 19.5868 39.6007 19.5868Z" fill="url(#paint3_radial_2569_14061)"/>
  <path d="M35.0681 61.9836C26.7302 61.5669 19.8679 54.745 19.8679 45.9303C19.8679 43.4669 20.8098 40.746 20.8098 40.746C20.9234 40.4019 21.3832 40.1476 21.9131 39.8545C22.7943 39.3672 23.8694 38.7727 23.8694 37.4798C23.8694 36.6941 23.5404 36.3449 23.2124 35.9968C22.8864 35.6508 22.5614 35.3059 22.5614 34.5347C22.5614 32.9874 24.0374 32.6138 24.0374 32.6138C27.9671 31.2907 28.3101 27.8197 28.3101 26.9561C28.3101 23.1114 25.0922 20.958 22.3136 20.958C13.3146 20.958 10.3549 30.986 10 36C10 50.0474 21.1403 61.4929 35.0681 61.9836Z" fill="white" fill-opacity="0.45"/>
  <defs>
    <radialGradient id="paint0_radial_2569_14061" cx="0" cy="0" r="1" gradientUnits="userSpaceOnUse" gradientTransform="translate(54.7949 21.2905) rotate(128.958) scale(51.0554)">
      <stop stop-color="#4A9EFF"/>
      <stop offset="1" stop-color="#001958"/>
    </radialGradient>
    <radialGradient id="paint1_radial_2569_14061" cx="0" cy="0" r="1" gradientUnits="userSpaceOnUse" gradientTransform="translate(54.7949 21.2905) rotate(128.958) scale(51.0554)">
      <stop stop-color="#4A9EFF"/>
      <stop offset="1" stop-color="#001958"/>
    </radialGradient>
    <radialGradient id="paint2_radial_2569_14061" cx="0" cy="0" r="1" gradientUnits="userSpaceOnUse" gradientTransform="translate(47.3215 15.1965) rotate(100.932) scale(45.8423 51.4181)">
      <stop stop-color="#2DD9FD"/>
      <stop offset="0.47" stop-color="#21B6E9"/>
      <stop offset="1" stop-color="#005BB5"/>
    </radialGradient>
    <radialGradient id="paint3_radial_2569_14061" cx="0" cy="0" r="1" gradientUnits="userSpaceOnUse" gradientTransform="translate(30.8091 12.5098) rotate(88.3583) scale(45.1502 48.49)">
      <stop stop-color="#6FE8FA"/>
      <stop offset="0.4" stop-color="#6FE8FA"/>
      <stop offset="1" stop-color="#009ED9"/>
    </radialGradient>
  </defs>
</svg>